<svg xmlns="http://www.w3.org/2000/svg" viewBox="0 0 65.8 60.71"><defs><style>.cls-1{fill:#efefef;}.cls-2{fill:#fff;}.cls-3{fill:#4d4d4d;}.cls-4{fill:#ccc;}.cls-5{fill:#e0e0e0;}.cls-6{fill:#f79;}.cls-7{fill:#aaa;}.cls-8{fill:#ef608f;}</style></defs><title>Store</title><g id="Layer_2" data-name="Layer 2"><g id="Layer_1-2" data-name="Layer 1"><path class="cls-1" d="M48.37,11.3c7,5.33,15.48,10.8,17.12,17.92S62,45.12,55,50.89s-15.76,8.52-25.49,9.48-20.4.1-24.86-5.67S1.89,38.27,3.8,29.49s4-15.62,8.47-20.95S23.59-.6,29.76.08,41.39,6,48.37,11.3Z"/><g id="rect4204"><rect class="cls-2" x="3.7" y="14.34" width="44.94" height="44.94" rx="2.95" ry="2.95"/><path class="cls-3" d="M45.7,14.59a2.7,2.7,0,0,1,2.7,2.7v39A2.7,2.7,0,0,1,45.7,59h-39A2.7,2.7,0,0,1,4,56.33v-39a2.7,2.7,0,0,1,2.71-2.7h39m0-.5h-39a3.21,3.21,0,0,0-3.21,3.2v39a3.21,3.21,0,0,0,3.21,3.2h39a3.2,3.2,0,0,0,3.2-3.2v-39a3.2,3.2,0,0,0-3.2-3.2Z"/></g><path class="cls-4" d="M26.69,59.17a.25.25,0,0,1-.25-.25V41.12A1.12,1.12,0,0,1,27.56,40H41.39a1.12,1.12,0,0,1,1.11,1.12v17.8a.25.25,0,0,1-.25.25Z"/><path class="cls-3" d="M41.39,40.25a.86.86,0,0,1,.86.87v17.8H26.69V41.12a.87.87,0,0,1,.87-.87H41.39m0-.5H27.56a1.37,1.37,0,0,0-1.37,1.37v17.8a.5.5,0,0,0,.5.5H42.25a.5.5,0,0,0,.5-.5V41.12a1.36,1.36,0,0,0-1.36-1.37Z"/><path class="cls-5" d="M6,56.33v-39a2.69,2.69,0,0,1,2.7-2.7H6.66A2.7,2.7,0,0,0,4,17.29v39A2.7,2.7,0,0,0,6.66,59H8.73A2.69,2.69,0,0,1,6,56.33Z"/><g id="path4202"><path class="cls-6" d="M.25,27.37,4,11.81C4.31,10.31,5.19,9,6.73,9H45.62c1.54,0,2.42,1.28,2.78,2.78l3.7,15.56"/><path class="cls-3" d="M51.86,27.42l-3.7-15.55c-.19-.78-.81-2.59-2.54-2.59H6.73C5,9.28,4.38,11.09,4.2,11.87L.49,27.42,0,27.31l3.7-15.56c.45-1.89,1.55-3,3-3H45.62c1.47,0,2.57,1.08,3,3l3.71,15.56Z"/></g><g id="path4214"><path class="cls-4" d="M13.21,27.37,15.07,9h11.2V27.37"/><path class="cls-3" d="M13.46,27.39l-.5-.05L14.82,9a.25.25,0,0,1,.25-.23h11.2a.25.25,0,0,1,.25.25V27.37H26V9.28H15.29Z"/></g><g id="path4216"><path class="cls-4" d="M39.23,27.37,37.38,9h8.24c1.54,0,2.42,1.28,2.78,2.78l3.7,15.56"/><path class="cls-3" d="M51.86,27.42l-3.7-15.55c-.19-.78-.81-2.59-2.54-2.59h-8l1.82,18.06-.5.05L37.13,9.06a.26.26,0,0,1,.07-.2.23.23,0,0,1,.18-.08h8.24c1.47,0,2.57,1.08,3,3l3.71,15.56Z"/></g><g id="path4208"><path class="cls-6" d="M39.14,27.55a6.61,6.61,0,0,1-3.24,5.7,6.37,6.37,0,0,1-6.48,0,6.59,6.59,0,0,1-3.24-5.7h13Z"/><path class="cls-3" d="M32.66,34.38a6.64,6.64,0,0,1-3.37-.91,6.89,6.89,0,0,1-3.36-5.92.25.25,0,0,1,.25-.25h13a.25.25,0,0,1,.25.25A6.88,6.88,0,0,1,36,33.47,6.6,6.6,0,0,1,32.66,34.38ZM26.43,27.8A6.4,6.4,0,0,0,29.54,33a6.2,6.2,0,0,0,6.23,0,6.37,6.37,0,0,0,3.11-5.24Z"/></g><g id="path4212"><path class="cls-4" d="M52.1,27.55a6.59,6.59,0,0,1-3.24,5.7,6.37,6.37,0,0,1-6.48,0,6.59,6.59,0,0,1-3.24-5.7h13Z"/><path class="cls-3" d="M45.62,34.38a6.66,6.66,0,0,1-3.37-.91,6.89,6.89,0,0,1-3.36-5.92.25.25,0,0,1,.25-.25h13a.25.25,0,0,1,.25.25A6.89,6.89,0,0,1,49,33.47,6.64,6.64,0,0,1,45.62,34.38ZM39.39,27.8A6.41,6.41,0,0,0,42.51,33a6.2,6.2,0,0,0,6.23,0,6.4,6.4,0,0,0,3.11-5.24Z"/></g><g id="path4206"><path class="cls-6" d="M13.21,27.55A6.59,6.59,0,0,1,10,33.25a6.37,6.37,0,0,1-6.48,0,6.61,6.61,0,0,1-3.24-5.7h13Z"/><path class="cls-3" d="M6.73,34.38a6.66,6.66,0,0,1-3.37-.91A6.89,6.89,0,0,1,0,27.55a.25.25,0,0,1,.25-.25h13a.25.25,0,0,1,.25.25,6.89,6.89,0,0,1-3.36,5.92A6.64,6.64,0,0,1,6.73,34.38ZM.5,27.8A6.41,6.41,0,0,0,3.62,33a6.2,6.2,0,0,0,6.23,0A6.4,6.4,0,0,0,13,27.8Z"/></g><g id="path4210"><path class="cls-4" d="M26.18,27.55a6.61,6.61,0,0,1-3.24,5.7,6.39,6.39,0,0,1-6.49,0,6.61,6.61,0,0,1-3.24-5.7h13Z"/><path class="cls-3" d="M19.7,34.38a6.64,6.64,0,0,1-3.37-.91A6.88,6.88,0,0,1,13,27.55a.25.25,0,0,1,.25-.25h13a.25.25,0,0,1,.25.25,6.88,6.88,0,0,1-3.37,5.92A6.63,6.63,0,0,1,19.7,34.38ZM13.47,27.8A6.37,6.37,0,0,0,16.58,33a6.2,6.2,0,0,0,6.23,0,6.37,6.37,0,0,0,3.11-5.24Z"/></g><path class="cls-7" d="M29.67,40.25H27.59a.9.9,0,0,0-.9.9V58.92h2.08V41.15A.9.9,0,0,1,29.67,40.25Z"/><path class="cls-8" d="M8.81,9H6.73C5.19,9,4.31,10.31,4,11.81L.25,27.37H2.32L6,11.81C6.39,10.31,7.27,9,8.81,9Z"/><g id="path4202-2" data-name="path4202"><path class="cls-3" d="M51.86,27.42l-3.7-15.55c-.19-.78-.81-2.59-2.54-2.59H6.73C5,9.28,4.38,11.09,4.2,11.87L.49,27.42,0,27.31l3.7-15.56c.45-1.89,1.55-3,3-3H45.62c1.47,0,2.57,1.08,3,3l3.71,15.56Z"/></g><path class="cls-8" d="M5.57,33.25a6.59,6.59,0,0,1-3.25-5.7H.25a6.61,6.61,0,0,0,3.24,5.7A6.4,6.4,0,0,0,7.77,34,6.4,6.4,0,0,1,5.57,33.25Z"/><g id="path4206-2" data-name="path4206"><path class="cls-3" d="M6.73,34.38a6.66,6.66,0,0,1-3.37-.91A6.89,6.89,0,0,1,0,27.55a.25.25,0,0,1,.25-.25h13a.25.25,0,0,1,.25.25,6.89,6.89,0,0,1-3.36,5.92A6.64,6.64,0,0,1,6.73,34.38ZM.5,27.8A6.41,6.41,0,0,0,3.62,33a6.2,6.2,0,0,0,6.23,0A6.4,6.4,0,0,0,13,27.8Z"/></g></g></g></svg>